<svg xmlns="http://www.w3.org/2000/svg" width="530" height="530" viewBox="0 0 530 530" xml:space="preserve"><path d="M145.1 229.6c17.2 56.4 61.4 115 121 115s103.9-58.6 121-115c14.7-5.1 27-19.8 31.801-38.8 6.6-26.1-3.101-50.3-21.9-57.6 1.7-6.9 2.6-14 2.6-21.3C399.599 50 337.9 0 261.799 0c-76.1 0-138 50.1-138 111.9 0 8.8 1.4 17.4 3.7 25.6-13.6 10.3-19.8 31.1-14.2 53.4 4.801 18.9 17.1 33.6 31.801 38.7m-9.201-71.9c2-3.3 4.6-5.5 7.9-6.4.6-.1 1.4-.2 2.1-.2.6 0 1.1 0 1.7.1l9.5.9 1.4-9.4c2.9-19.6 9-37.2 17.6-52.2 16.1 18.1 48.1 30.4 85 30.4 41.7 0 77.2-15.7 90.3-37.7 11 16.5 18.8 36.6 22.199 59.5l1.4 9.4 9.5-.9c1.4-.1 2.7-.1 3.8.1.7.1 1.101.6 1.8.8 8.601 3.8 13 18.9 9.301 33.9-3.801 15.3-13.801 24.3-21.7 25.3l-6.601.9-1.8 6.4c-14.399 52.6-54.399 106-103.4 106-49 0-89-53.3-103.2-106l-1.8-6.4-6.6-.9c-7.9-1-17.9-10.2-21.7-25.3-2.498-10.8-.998-21.7 3.301-28.3"/><path d="M383.599 299.4c-12.8 21.8-27.6 40.3-47.3 50.199-40.5 20.7-70.6 37.5-70.6 37.5l-.1-.1v-.5l-.5.2-.5-.2v.5l-.1.1s-30.1-16.699-70.6-37.5c-19.6-10.1-34.4-28.5-47.3-50.199-59.899 24.3-101.8 80.4-101.8 129.2V530h440.4V428.6c.201-48.8-41.699-104.8-101.6-129.2"/></svg>